<?xml version="1.0" encoding="utf-8" standalone="no"?>
<!DOCTYPE svg PUBLIC "-//W3C//DTD SVG 1.1//EN"
  "http://www.w3.org/Graphics/SVG/1.1/DTD/svg11.dtd">
<svg height="345.6pt" version="1.1" viewBox="0 0 460.8 345.6" width="460.8pt" xmlns="http://www.w3.org/2000/svg" xmlns:xlink="http://www.w3.org/1999/xlink">
 <metadata>
  <rdf:RDF xmlns:cc="http://creativecommons.org/ns#" xmlns:dc="http://purl.org/dc/elements/1.1/" xmlns:rdf="http://www.w3.org/1999/02/22-rdf-syntax-ns#">
   <cc:Work>
    <dc:type rdf:resource="http://purl.org/dc/dcmitype/StillImage"/>
    <dc:date>2021-11-26T23:03:01.108194</dc:date>
    <dc:format>image/svg+xml</dc:format>
    <dc:creator>
     <cc:Agent>
      <dc:title>Matplotlib v3.4.3, https://matplotlib.org/</dc:title>
     </cc:Agent>
    </dc:creator>
   </cc:Work>
  </rdf:RDF>
 </metadata>
 <defs>
  <style type="text/css">*{stroke-linecap:butt;stroke-linejoin:round;}</style>
 </defs>
 <g id="figure_1">
  <g id="patch_1">
   <path d="M 0 345.6 
L 460.8 345.6 
L 460.8 0 
L 0 0 
z
" style="fill:#ffffff;"/>
  </g>
  <g id="axes_1">
   <g id="patch_2">
    <path d="M 57.6 307.584 
L 414.72 307.584 
L 414.72 41.472 
L 57.6 41.472 
z
" style="fill:#ffffff;"/>
   </g>
   <g id="matplotlib.axis_1">
    <g id="xtick_1">
     <g id="line2d_1">
      <path clip-path="url(#ped70ca55c5)" d="M 67.069091 307.584 
L 67.069091 41.472 
" style="fill:none;stroke:#b0b0b0;stroke-linecap:square;stroke-width:0.8;"/>
     </g>
     <g id="line2d_2">
      <defs>
       <path d="M 0 0 
L 0 3.5 
" id="m8179d40241" style="stroke:#000000;stroke-width:0.8;"/>
      </defs>
      <g>
       <use style="stroke:#000000;stroke-width:0.8;" x="67.069091" xlink:href="#m8179d40241" y="307.584"/>
      </g>
     </g>
     <g id="text_1">
      <!-- 0 -->
      <g transform="translate(63.887841 322.182437)scale(0.1 -0.1)">
       <defs>
        <path d="M 2034 4250 
Q 1547 4250 1301 3770 
Q 1056 3291 1056 2328 
Q 1056 1369 1301 889 
Q 1547 409 2034 409 
Q 2525 409 2770 889 
Q 3016 1369 3016 2328 
Q 3016 3291 2770 3770 
Q 2525 4250 2034 4250 
z
M 2034 4750 
Q 2819 4750 3233 4129 
Q 3647 3509 3647 2328 
Q 3647 1150 3233 529 
Q 2819 -91 2034 -91 
Q 1250 -91 836 529 
Q 422 1150 422 2328 
Q 422 3509 836 4129 
Q 1250 4750 2034 4750 
z
" id="DejaVuSans-30" transform="scale(0.015625)"/>
       </defs>
       <use xlink:href="#DejaVuSans-30"/>
      </g>
     </g>
    </g>
    <g id="xtick_2">
     <g id="line2d_3">
      <path clip-path="url(#ped70ca55c5)" d="M 134.705455 307.584 
L 134.705455 41.472 
" style="fill:none;stroke:#b0b0b0;stroke-linecap:square;stroke-width:0.8;"/>
     </g>
     <g id="line2d_4">
      <g>
       <use style="stroke:#000000;stroke-width:0.8;" x="134.705455" xlink:href="#m8179d40241" y="307.584"/>
      </g>
     </g>
     <g id="text_2">
      <!-- 10 -->
      <g transform="translate(128.342955 322.182437)scale(0.1 -0.1)">
       <defs>
        <path d="M 794 531 
L 1825 531 
L 1825 4091 
L 703 3866 
L 703 4441 
L 1819 4666 
L 2450 4666 
L 2450 531 
L 3481 531 
L 3481 0 
L 794 0 
L 794 531 
z
" id="DejaVuSans-31" transform="scale(0.015625)"/>
       </defs>
       <use xlink:href="#DejaVuSans-31"/>
       <use x="63.623047" xlink:href="#DejaVuSans-30"/>
      </g>
     </g>
    </g>
    <g id="xtick_3">
     <g id="line2d_5">
      <path clip-path="url(#ped70ca55c5)" d="M 202.341818 307.584 
L 202.341818 41.472 
" style="fill:none;stroke:#b0b0b0;stroke-linecap:square;stroke-width:0.8;"/>
     </g>
     <g id="line2d_6">
      <g>
       <use style="stroke:#000000;stroke-width:0.8;" x="202.341818" xlink:href="#m8179d40241" y="307.584"/>
      </g>
     </g>
     <g id="text_3">
      <!-- 20 -->
      <g transform="translate(195.979318 322.182437)scale(0.1 -0.1)">
       <defs>
        <path d="M 1228 531 
L 3431 531 
L 3431 0 
L 469 0 
L 469 531 
Q 828 903 1448 1529 
Q 2069 2156 2228 2338 
Q 2531 2678 2651 2914 
Q 2772 3150 2772 3378 
Q 2772 3750 2511 3984 
Q 2250 4219 1831 4219 
Q 1534 4219 1204 4116 
Q 875 4013 500 3803 
L 500 4441 
Q 881 4594 1212 4672 
Q 1544 4750 1819 4750 
Q 2544 4750 2975 4387 
Q 3406 4025 3406 3419 
Q 3406 3131 3298 2873 
Q 3191 2616 2906 2266 
Q 2828 2175 2409 1742 
Q 1991 1309 1228 531 
z
" id="DejaVuSans-32" transform="scale(0.015625)"/>
       </defs>
       <use xlink:href="#DejaVuSans-32"/>
       <use x="63.623047" xlink:href="#DejaVuSans-30"/>
      </g>
     </g>
    </g>
    <g id="xtick_4">
     <g id="line2d_7">
      <path clip-path="url(#ped70ca55c5)" d="M 269.978182 307.584 
L 269.978182 41.472 
" style="fill:none;stroke:#b0b0b0;stroke-linecap:square;stroke-width:0.8;"/>
     </g>
     <g id="line2d_8">
      <g>
       <use style="stroke:#000000;stroke-width:0.8;" x="269.978182" xlink:href="#m8179d40241" y="307.584"/>
      </g>
     </g>
     <g id="text_4">
      <!-- 30 -->
      <g transform="translate(263.615682 322.182437)scale(0.1 -0.1)">
       <defs>
        <path d="M 2597 2516 
Q 3050 2419 3304 2112 
Q 3559 1806 3559 1356 
Q 3559 666 3084 287 
Q 2609 -91 1734 -91 
Q 1441 -91 1130 -33 
Q 819 25 488 141 
L 488 750 
Q 750 597 1062 519 
Q 1375 441 1716 441 
Q 2309 441 2620 675 
Q 2931 909 2931 1356 
Q 2931 1769 2642 2001 
Q 2353 2234 1838 2234 
L 1294 2234 
L 1294 2753 
L 1863 2753 
Q 2328 2753 2575 2939 
Q 2822 3125 2822 3475 
Q 2822 3834 2567 4026 
Q 2313 4219 1838 4219 
Q 1578 4219 1281 4162 
Q 984 4106 628 3988 
L 628 4550 
Q 988 4650 1302 4700 
Q 1616 4750 1894 4750 
Q 2613 4750 3031 4423 
Q 3450 4097 3450 3541 
Q 3450 3153 3228 2886 
Q 3006 2619 2597 2516 
z
" id="DejaVuSans-33" transform="scale(0.015625)"/>
       </defs>
       <use xlink:href="#DejaVuSans-33"/>
       <use x="63.623047" xlink:href="#DejaVuSans-30"/>
      </g>
     </g>
    </g>
    <g id="xtick_5">
     <g id="line2d_9">
      <path clip-path="url(#ped70ca55c5)" d="M 337.614545 307.584 
L 337.614545 41.472 
" style="fill:none;stroke:#b0b0b0;stroke-linecap:square;stroke-width:0.8;"/>
     </g>
     <g id="line2d_10">
      <g>
       <use style="stroke:#000000;stroke-width:0.8;" x="337.614545" xlink:href="#m8179d40241" y="307.584"/>
      </g>
     </g>
     <g id="text_5">
      <!-- 40 -->
      <g transform="translate(331.252045 322.182437)scale(0.1 -0.1)">
       <defs>
        <path d="M 2419 4116 
L 825 1625 
L 2419 1625 
L 2419 4116 
z
M 2253 4666 
L 3047 4666 
L 3047 1625 
L 3713 1625 
L 3713 1100 
L 3047 1100 
L 3047 0 
L 2419 0 
L 2419 1100 
L 313 1100 
L 313 1709 
L 2253 4666 
z
" id="DejaVuSans-34" transform="scale(0.015625)"/>
       </defs>
       <use xlink:href="#DejaVuSans-34"/>
       <use x="63.623047" xlink:href="#DejaVuSans-30"/>
      </g>
     </g>
    </g>
    <g id="xtick_6">
     <g id="line2d_11">
      <path clip-path="url(#ped70ca55c5)" d="M 405.250909 307.584 
L 405.250909 41.472 
" style="fill:none;stroke:#b0b0b0;stroke-linecap:square;stroke-width:0.8;"/>
     </g>
     <g id="line2d_12">
      <g>
       <use style="stroke:#000000;stroke-width:0.8;" x="405.250909" xlink:href="#m8179d40241" y="307.584"/>
      </g>
     </g>
     <g id="text_6">
      <!-- 50 -->
      <g transform="translate(398.888409 322.182437)scale(0.1 -0.1)">
       <defs>
        <path d="M 691 4666 
L 3169 4666 
L 3169 4134 
L 1269 4134 
L 1269 2991 
Q 1406 3038 1543 3061 
Q 1681 3084 1819 3084 
Q 2600 3084 3056 2656 
Q 3513 2228 3513 1497 
Q 3513 744 3044 326 
Q 2575 -91 1722 -91 
Q 1428 -91 1123 -41 
Q 819 9 494 109 
L 494 744 
Q 775 591 1075 516 
Q 1375 441 1709 441 
Q 2250 441 2565 725 
Q 2881 1009 2881 1497 
Q 2881 1984 2565 2268 
Q 2250 2553 1709 2553 
Q 1456 2553 1204 2497 
Q 953 2441 691 2322 
L 691 4666 
z
" id="DejaVuSans-35" transform="scale(0.015625)"/>
       </defs>
       <use xlink:href="#DejaVuSans-35"/>
       <use x="63.623047" xlink:href="#DejaVuSans-30"/>
      </g>
     </g>
    </g>
    <g id="text_7">
     <!-- Block Size -->
     <g transform="translate(210.783437 335.860562)scale(0.1 -0.1)">
      <defs>
       <path d="M 1259 2228 
L 1259 519 
L 2272 519 
Q 2781 519 3026 730 
Q 3272 941 3272 1375 
Q 3272 1813 3026 2020 
Q 2781 2228 2272 2228 
L 1259 2228 
z
M 1259 4147 
L 1259 2741 
L 2194 2741 
Q 2656 2741 2882 2914 
Q 3109 3088 3109 3444 
Q 3109 3797 2882 3972 
Q 2656 4147 2194 4147 
L 1259 4147 
z
M 628 4666 
L 2241 4666 
Q 2963 4666 3353 4366 
Q 3744 4066 3744 3513 
Q 3744 3084 3544 2831 
Q 3344 2578 2956 2516 
Q 3422 2416 3680 2098 
Q 3938 1781 3938 1306 
Q 3938 681 3513 340 
Q 3088 0 2303 0 
L 628 0 
L 628 4666 
z
" id="DejaVuSans-42" transform="scale(0.015625)"/>
       <path d="M 603 4863 
L 1178 4863 
L 1178 0 
L 603 0 
L 603 4863 
z
" id="DejaVuSans-6c" transform="scale(0.015625)"/>
       <path d="M 1959 3097 
Q 1497 3097 1228 2736 
Q 959 2375 959 1747 
Q 959 1119 1226 758 
Q 1494 397 1959 397 
Q 2419 397 2687 759 
Q 2956 1122 2956 1747 
Q 2956 2369 2687 2733 
Q 2419 3097 1959 3097 
z
M 1959 3584 
Q 2709 3584 3137 3096 
Q 3566 2609 3566 1747 
Q 3566 888 3137 398 
Q 2709 -91 1959 -91 
Q 1206 -91 779 398 
Q 353 888 353 1747 
Q 353 2609 779 3096 
Q 1206 3584 1959 3584 
z
" id="DejaVuSans-6f" transform="scale(0.015625)"/>
       <path d="M 3122 3366 
L 3122 2828 
Q 2878 2963 2633 3030 
Q 2388 3097 2138 3097 
Q 1578 3097 1268 2742 
Q 959 2388 959 1747 
Q 959 1106 1268 751 
Q 1578 397 2138 397 
Q 2388 397 2633 464 
Q 2878 531 3122 666 
L 3122 134 
Q 2881 22 2623 -34 
Q 2366 -91 2075 -91 
Q 1284 -91 818 406 
Q 353 903 353 1747 
Q 353 2603 823 3093 
Q 1294 3584 2113 3584 
Q 2378 3584 2631 3529 
Q 2884 3475 3122 3366 
z
" id="DejaVuSans-63" transform="scale(0.015625)"/>
       <path d="M 581 4863 
L 1159 4863 
L 1159 1991 
L 2875 3500 
L 3609 3500 
L 1753 1863 
L 3688 0 
L 2938 0 
L 1159 1709 
L 1159 0 
L 581 0 
L 581 4863 
z
" id="DejaVuSans-6b" transform="scale(0.015625)"/>
       <path id="DejaVuSans-20" transform="scale(0.015625)"/>
       <path d="M 3425 4513 
L 3425 3897 
Q 3066 4069 2747 4153 
Q 2428 4238 2131 4238 
Q 1616 4238 1336 4038 
Q 1056 3838 1056 3469 
Q 1056 3159 1242 3001 
Q 1428 2844 1947 2747 
L 2328 2669 
Q 3034 2534 3370 2195 
Q 3706 1856 3706 1288 
Q 3706 609 3251 259 
Q 2797 -91 1919 -91 
Q 1588 -91 1214 -16 
Q 841 59 441 206 
L 441 856 
Q 825 641 1194 531 
Q 1563 422 1919 422 
Q 2459 422 2753 634 
Q 3047 847 3047 1241 
Q 3047 1584 2836 1778 
Q 2625 1972 2144 2069 
L 1759 2144 
Q 1053 2284 737 2584 
Q 422 2884 422 3419 
Q 422 4038 858 4394 
Q 1294 4750 2059 4750 
Q 2388 4750 2728 4690 
Q 3069 4631 3425 4513 
z
" id="DejaVuSans-53" transform="scale(0.015625)"/>
       <path d="M 603 3500 
L 1178 3500 
L 1178 0 
L 603 0 
L 603 3500 
z
M 603 4863 
L 1178 4863 
L 1178 4134 
L 603 4134 
L 603 4863 
z
" id="DejaVuSans-69" transform="scale(0.015625)"/>
       <path d="M 353 3500 
L 3084 3500 
L 3084 2975 
L 922 459 
L 3084 459 
L 3084 0 
L 275 0 
L 275 525 
L 2438 3041 
L 353 3041 
L 353 3500 
z
" id="DejaVuSans-7a" transform="scale(0.015625)"/>
       <path d="M 3597 1894 
L 3597 1613 
L 953 1613 
Q 991 1019 1311 708 
Q 1631 397 2203 397 
Q 2534 397 2845 478 
Q 3156 559 3463 722 
L 3463 178 
Q 3153 47 2828 -22 
Q 2503 -91 2169 -91 
Q 1331 -91 842 396 
Q 353 884 353 1716 
Q 353 2575 817 3079 
Q 1281 3584 2069 3584 
Q 2775 3584 3186 3129 
Q 3597 2675 3597 1894 
z
M 3022 2063 
Q 3016 2534 2758 2815 
Q 2500 3097 2075 3097 
Q 1594 3097 1305 2825 
Q 1016 2553 972 2059 
L 3022 2063 
z
" id="DejaVuSans-65" transform="scale(0.015625)"/>
      </defs>
      <use xlink:href="#DejaVuSans-42"/>
      <use x="68.603516" xlink:href="#DejaVuSans-6c"/>
      <use x="96.386719" xlink:href="#DejaVuSans-6f"/>
      <use x="157.568359" xlink:href="#DejaVuSans-63"/>
      <use x="212.548828" xlink:href="#DejaVuSans-6b"/>
      <use x="270.458984" xlink:href="#DejaVuSans-20"/>
      <use x="302.246094" xlink:href="#DejaVuSans-53"/>
      <use x="365.722656" xlink:href="#DejaVuSans-69"/>
      <use x="393.505859" xlink:href="#DejaVuSans-7a"/>
      <use x="445.996094" xlink:href="#DejaVuSans-65"/>
     </g>
    </g>
   </g>
   <g id="matplotlib.axis_2">
    <g id="ytick_1">
     <g id="line2d_13">
      <path clip-path="url(#ped70ca55c5)" d="M 57.6 276.879467 
L 414.72 276.879467 
" style="fill:none;stroke:#b0b0b0;stroke-linecap:square;stroke-width:0.8;"/>
     </g>
     <g id="line2d_14">
      <defs>
       <path d="M 0 0 
L -3.5 0 
" id="mb6c846a0c7" style="stroke:#000000;stroke-width:0.8;"/>
      </defs>
      <g>
       <use style="stroke:#000000;stroke-width:0.8;" x="57.6" xlink:href="#mb6c846a0c7" y="276.879467"/>
      </g>
     </g>
     <g id="text_8">
      <!-- 1 -->
      <g transform="translate(44.2375 280.678686)scale(0.1 -0.1)">
       <use xlink:href="#DejaVuSans-31"/>
      </g>
     </g>
    </g>
    <g id="ytick_2">
     <g id="line2d_15">
      <path clip-path="url(#ped70ca55c5)" d="M 57.6 232.013498 
L 414.72 232.013498 
" style="fill:none;stroke:#b0b0b0;stroke-linecap:square;stroke-width:0.8;"/>
     </g>
     <g id="line2d_16">
      <g>
       <use style="stroke:#000000;stroke-width:0.8;" x="57.6" xlink:href="#mb6c846a0c7" y="232.013498"/>
      </g>
     </g>
     <g id="text_9">
      <!-- 2 -->
      <g transform="translate(44.2375 235.812717)scale(0.1 -0.1)">
       <use xlink:href="#DejaVuSans-32"/>
      </g>
     </g>
    </g>
    <g id="ytick_3">
     <g id="line2d_17">
      <path clip-path="url(#ped70ca55c5)" d="M 57.6 187.14753 
L 414.72 187.14753 
" style="fill:none;stroke:#b0b0b0;stroke-linecap:square;stroke-width:0.8;"/>
     </g>
     <g id="line2d_18">
      <g>
       <use style="stroke:#000000;stroke-width:0.8;" x="57.6" xlink:href="#mb6c846a0c7" y="187.14753"/>
      </g>
     </g>
     <g id="text_10">
      <!-- 3 -->
      <g transform="translate(44.2375 190.946748)scale(0.1 -0.1)">
       <use xlink:href="#DejaVuSans-33"/>
      </g>
     </g>
    </g>
    <g id="ytick_4">
     <g id="line2d_19">
      <path clip-path="url(#ped70ca55c5)" d="M 57.6 142.281561 
L 414.72 142.281561 
" style="fill:none;stroke:#b0b0b0;stroke-linecap:square;stroke-width:0.8;"/>
     </g>
     <g id="line2d_20">
      <g>
       <use style="stroke:#000000;stroke-width:0.8;" x="57.6" xlink:href="#mb6c846a0c7" y="142.281561"/>
      </g>
     </g>
     <g id="text_11">
      <!-- 4 -->
      <g transform="translate(44.2375 146.08078)scale(0.1 -0.1)">
       <use xlink:href="#DejaVuSans-34"/>
      </g>
     </g>
    </g>
    <g id="ytick_5">
     <g id="line2d_21">
      <path clip-path="url(#ped70ca55c5)" d="M 57.6 97.415592 
L 414.72 97.415592 
" style="fill:none;stroke:#b0b0b0;stroke-linecap:square;stroke-width:0.8;"/>
     </g>
     <g id="line2d_22">
      <g>
       <use style="stroke:#000000;stroke-width:0.8;" x="57.6" xlink:href="#mb6c846a0c7" y="97.415592"/>
      </g>
     </g>
     <g id="text_12">
      <!-- 5 -->
      <g transform="translate(44.2375 101.214811)scale(0.1 -0.1)">
       <use xlink:href="#DejaVuSans-35"/>
      </g>
     </g>
    </g>
    <g id="ytick_6">
     <g id="line2d_23">
      <path clip-path="url(#ped70ca55c5)" d="M 57.6 52.549624 
L 414.72 52.549624 
" style="fill:none;stroke:#b0b0b0;stroke-linecap:square;stroke-width:0.8;"/>
     </g>
     <g id="line2d_24">
      <g>
       <use style="stroke:#000000;stroke-width:0.8;" x="57.6" xlink:href="#mb6c846a0c7" y="52.549624"/>
      </g>
     </g>
     <g id="text_13">
      <!-- 6 -->
      <g transform="translate(44.2375 56.348842)scale(0.1 -0.1)">
       <defs>
        <path d="M 2113 2584 
Q 1688 2584 1439 2293 
Q 1191 2003 1191 1497 
Q 1191 994 1439 701 
Q 1688 409 2113 409 
Q 2538 409 2786 701 
Q 3034 994 3034 1497 
Q 3034 2003 2786 2293 
Q 2538 2584 2113 2584 
z
M 3366 4563 
L 3366 3988 
Q 3128 4100 2886 4159 
Q 2644 4219 2406 4219 
Q 1781 4219 1451 3797 
Q 1122 3375 1075 2522 
Q 1259 2794 1537 2939 
Q 1816 3084 2150 3084 
Q 2853 3084 3261 2657 
Q 3669 2231 3669 1497 
Q 3669 778 3244 343 
Q 2819 -91 2113 -91 
Q 1303 -91 875 529 
Q 447 1150 447 2328 
Q 447 3434 972 4092 
Q 1497 4750 2381 4750 
Q 2619 4750 2861 4703 
Q 3103 4656 3366 4563 
z
" id="DejaVuSans-36" transform="scale(0.015625)"/>
       </defs>
       <use xlink:href="#DejaVuSans-36"/>
      </g>
     </g>
    </g>
    <g id="text_14">
     <!-- Area Ratio -->
     <g transform="translate(38.157812 200.455344)rotate(-90)scale(0.1 -0.1)">
      <defs>
       <path d="M 2188 4044 
L 1331 1722 
L 3047 1722 
L 2188 4044 
z
M 1831 4666 
L 2547 4666 
L 4325 0 
L 3669 0 
L 3244 1197 
L 1141 1197 
L 716 0 
L 50 0 
L 1831 4666 
z
" id="DejaVuSans-41" transform="scale(0.015625)"/>
       <path d="M 2631 2963 
Q 2534 3019 2420 3045 
Q 2306 3072 2169 3072 
Q 1681 3072 1420 2755 
Q 1159 2438 1159 1844 
L 1159 0 
L 581 0 
L 581 3500 
L 1159 3500 
L 1159 2956 
Q 1341 3275 1631 3429 
Q 1922 3584 2338 3584 
Q 2397 3584 2469 3576 
Q 2541 3569 2628 3553 
L 2631 2963 
z
" id="DejaVuSans-72" transform="scale(0.015625)"/>
       <path d="M 2194 1759 
Q 1497 1759 1228 1600 
Q 959 1441 959 1056 
Q 959 750 1161 570 
Q 1363 391 1709 391 
Q 2188 391 2477 730 
Q 2766 1069 2766 1631 
L 2766 1759 
L 2194 1759 
z
M 3341 1997 
L 3341 0 
L 2766 0 
L 2766 531 
Q 2569 213 2275 61 
Q 1981 -91 1556 -91 
Q 1019 -91 701 211 
Q 384 513 384 1019 
Q 384 1609 779 1909 
Q 1175 2209 1959 2209 
L 2766 2209 
L 2766 2266 
Q 2766 2663 2505 2880 
Q 2244 3097 1772 3097 
Q 1472 3097 1187 3025 
Q 903 2953 641 2809 
L 641 3341 
Q 956 3463 1253 3523 
Q 1550 3584 1831 3584 
Q 2591 3584 2966 3190 
Q 3341 2797 3341 1997 
z
" id="DejaVuSans-61" transform="scale(0.015625)"/>
       <path d="M 2841 2188 
Q 3044 2119 3236 1894 
Q 3428 1669 3622 1275 
L 4263 0 
L 3584 0 
L 2988 1197 
Q 2756 1666 2539 1819 
Q 2322 1972 1947 1972 
L 1259 1972 
L 1259 0 
L 628 0 
L 628 4666 
L 2053 4666 
Q 2853 4666 3247 4331 
Q 3641 3997 3641 3322 
Q 3641 2881 3436 2590 
Q 3231 2300 2841 2188 
z
M 1259 4147 
L 1259 2491 
L 2053 2491 
Q 2509 2491 2742 2702 
Q 2975 2913 2975 3322 
Q 2975 3731 2742 3939 
Q 2509 4147 2053 4147 
L 1259 4147 
z
" id="DejaVuSans-52" transform="scale(0.015625)"/>
       <path d="M 1172 4494 
L 1172 3500 
L 2356 3500 
L 2356 3053 
L 1172 3053 
L 1172 1153 
Q 1172 725 1289 603 
Q 1406 481 1766 481 
L 2356 481 
L 2356 0 
L 1766 0 
Q 1100 0 847 248 
Q 594 497 594 1153 
L 594 3053 
L 172 3053 
L 172 3500 
L 594 3500 
L 594 4494 
L 1172 4494 
z
" id="DejaVuSans-74" transform="scale(0.015625)"/>
      </defs>
      <use xlink:href="#DejaVuSans-41"/>
      <use x="68.408203" xlink:href="#DejaVuSans-72"/>
      <use x="107.271484" xlink:href="#DejaVuSans-65"/>
      <use x="168.794922" xlink:href="#DejaVuSans-61"/>
      <use x="230.074219" xlink:href="#DejaVuSans-20"/>
      <use x="261.861328" xlink:href="#DejaVuSans-52"/>
      <use x="329.09375" xlink:href="#DejaVuSans-61"/>
      <use x="390.373047" xlink:href="#DejaVuSans-74"/>
      <use x="429.582031" xlink:href="#DejaVuSans-69"/>
      <use x="457.365234" xlink:href="#DejaVuSans-6f"/>
     </g>
    </g>
   </g>
   <g id="line2d_25">
    <path clip-path="url(#ped70ca55c5)" d="M 73.832727 295.488 
L 80.596364 287.527955 
L 87.36 282.278955 
L 94.123636 278.451076 
L 100.887273 275.491746 
L 107.650909 273.25347 
L 114.414545 271.359011 
L 121.178182 269.844775 
L 127.941818 268.578214 
L 134.705455 267.503157 
L 141.469091 266.579222 
L 148.232727 265.776638 
L 154.996364 265.072969 
L 161.76 264.450992 
L 168.523636 263.89726 
L 175.287273 263.401126 
L 182.050909 262.954047 
L 188.814545 262.549091 
L 195.578182 262.180572 
L 202.341818 261.843784 
L 209.105455 261.534798 
L 215.869091 261.250308 
L 222.632727 260.987512 
L 229.396364 260.74402 
L 236.16 260.517779 
L 242.923636 260.30702 
L 249.687273 260.110206 
L 256.450909 259.925997 
L 263.214545 259.75322 
L 269.978182 259.590842 
L 276.741818 259.437953 
L 283.505455 259.290707 
L 290.269091 259.157495 
L 297.032727 259.028567 
L 303.796364 258.906384 
L 310.56 258.79043 
L 317.323636 258.680241 
L 324.087273 258.575398 
L 330.850909 258.47552 
L 337.614545 258.380264 
L 344.378182 258.289314 
L 351.141818 258.202387 
L 357.905455 258.119221 
L 364.669091 258.039576 
L 371.432727 257.963234 
L 378.196364 257.889994 
L 384.96 257.819671 
L 391.723636 257.752093 
L 398.487273 257.687102 
" style="fill:none;stroke:#1f77b4;stroke-linecap:square;stroke-width:1.5;"/>
   </g>
   <g id="line2d_26">
    <path clip-path="url(#ped70ca55c5)" d="M 73.832727 293.949035 
L 80.596364 285.143678 
L 87.36 279.461618 
L 94.123636 275.250695 
L 100.887273 271.880705 
L 107.650909 269.419347 
L 114.414545 267.218166 
L 121.178182 265.500896 
L 127.941818 264.060814 
L 134.705455 262.835821 
L 141.469091 261.781078 
L 148.232727 260.863397 
L 154.996364 260.057694 
L 161.76 259.344649 
L 168.523636 258.70915 
L 175.287273 258.139197 
L 182.050909 257.625148 
L 188.814545 257.159162 
L 195.578182 256.7348 
L 202.341818 256.346722 
L 209.105455 255.990466 
L 215.869091 255.662272 
L 222.632727 255.358951 
L 229.396364 255.077777 
L 236.16 254.816411 
L 242.923636 254.57283 
L 249.687273 254.345279 
L 256.450909 254.132227 
L 263.214545 253.932329 
L 269.978182 253.744405 
L 276.741818 253.56741 
L 283.505455 253.393065 
L 290.269091 253.242602 
L 297.032727 253.093228 
L 303.796364 252.951636 
L 310.56 252.817234 
L 317.323636 252.689486 
L 324.087273 252.567911 
L 330.850909 252.452072 
L 337.614545 252.341573 
L 344.378182 252.236052 
L 351.141818 252.13518 
L 357.905455 252.038657 
L 364.669091 251.946208 
L 371.432727 251.85758 
L 378.196364 251.77254 
L 384.96 251.690876 
L 391.723636 251.61239 
L 398.487273 251.5369 
" style="fill:none;stroke:#ff7f0e;stroke-linecap:square;stroke-width:1.5;"/>
   </g>
   <g id="line2d_27">
    <path clip-path="url(#ped70ca55c5)" d="M 73.832727 292.323567 
L 80.596364 281.32824 
L 87.36 273.617168 
L 94.123636 267.602066 
L 100.887273 262.659141 
L 107.650909 258.889946 
L 114.414545 255.461286 
L 121.178182 252.715391 
L 127.941818 250.37162 
L 134.705455 248.347666 
L 141.469091 246.58225 
L 148.232727 245.028807 
L 154.996364 243.651323 
L 161.76 242.421503 
L 168.523636 241.316811 
L 175.287273 240.319076 
L 182.050909 239.41348 
L 188.814545 238.587824 
L 195.578182 237.831971 
L 202.341818 237.137427 
L 209.105455 236.497024 
L 215.869091 235.904669 
L 222.632727 235.355149 
L 229.396364 234.843981 
L 236.16 234.367286 
L 242.923636 233.921689 
L 249.687273 233.504243 
L 256.450909 233.112363 
L 263.214545 232.74377 
L 269.978182 232.396448 
L 276.741818 232.068607 
L 283.505455 231.746826 
L 290.269091 231.465161 
L 297.032727 231.186853 
L 303.796364 230.922582 
L 310.56 230.67131 
L 317.323636 230.432102 
L 324.087273 230.20411 
L 330.850909 229.986562 
L 337.614545 229.778757 
L 344.378182 229.580056 
L 351.141818 229.389871 
L 357.905455 229.207669 
L 364.669091 229.032955 
L 371.432727 228.865278 
L 378.196364 228.704222 
L 384.96 228.549401 
L 391.723636 228.40046 
L 398.487273 228.257071 
" style="fill:none;stroke:#2ca02c;stroke-linecap:square;stroke-width:1.5;"/>
   </g>
   <g id="line2d_28">
    <path clip-path="url(#ped70ca55c5)" d="M 73.832727 290.295386 
L 80.596364 277.7935 
L 87.36 268.679578 
L 94.123636 261.396469 
L 100.887273 255.373108 
L 107.650909 250.672965 
L 114.414545 246.357126 
L 121.178182 242.85797 
L 127.941818 239.84462 
L 134.705455 237.222473 
L 141.469091 234.919992 
L 148.232727 232.882079 
L 154.996364 231.065612 
L 161.76 229.436356 
L 168.523636 227.966788 
L 175.287273 226.634527 
L 182.050909 225.421188 
L 188.814545 224.311529 
L 195.578182 223.292804 
L 202.341818 222.354277 
L 209.105455 221.486835 
L 215.869091 220.682698 
L 222.632727 219.935179 
L 229.396364 219.238502 
L 236.16 218.58765 
L 242.923636 217.978247 
L 249.687273 217.406454 
L 256.450909 216.868896 
L 263.214545 216.362585 
L 269.978182 215.884875 
L 276.741818 215.433409 
L 283.505455 214.991382 
L 290.269091 214.601008 
L 297.032727 214.216494 
L 303.796364 213.851012 
L 310.56 213.503184 
L 317.323636 213.171761 
L 324.087273 212.855609 
L 330.850909 212.553696 
L 337.614545 212.265082 
L 344.378182 211.988906 
L 351.141818 211.724382 
L 357.905455 211.470788 
L 364.669091 211.227459 
L 371.432727 210.993785 
L 378.196364 210.769203 
L 384.96 210.553191 
L 391.723636 210.345269 
L 398.487273 210.144991 
" style="fill:none;stroke:#d62728;stroke-linecap:square;stroke-width:1.5;"/>
   </g>
   <g id="line2d_29">
    <path clip-path="url(#ped70ca55c5)" d="M 73.832727 288.597347 
L 80.596364 273.947097 
L 87.36 262.66393 
L 94.123636 253.285007 
L 100.887273 245.194568 
L 107.650909 238.68615 
L 114.414545 232.626895 
L 121.178182 227.578754 
L 127.941818 223.151701 
L 134.705455 219.237758 
L 141.469091 215.752604 
L 148.232727 212.629435 
L 154.996364 209.814639 
L 161.76 207.264693 
L 168.523636 204.943896 
L 175.287273 202.822687 
L 182.050909 200.876382 
L 188.814545 199.084205 
L 195.578182 197.428544 
L 202.341818 195.894373 
L 209.105455 194.468795 
L 215.869091 193.140672 
L 222.632727 191.900342 
L 229.396364 190.739379 
L 236.16 189.650401 
L 242.923636 188.626913 
L 249.687273 187.663182 
L 256.450909 186.754121 
L 263.214545 185.895207 
L 269.978182 185.082402 
L 276.741818 184.31209 
L 283.505455 183.557253 
L 290.269091 182.88628 
L 297.032727 182.225215 
L 303.796364 181.595438 
L 310.56 180.994781 
L 317.323636 180.421268 
L 324.087273 179.873101 
L 330.850909 179.348635 
L 337.614545 178.846366 
L 344.378182 178.364914 
L 351.141818 177.903011 
L 357.905455 177.45949 
L 364.669091 177.033276 
L 371.432727 176.623373 
L 378.196364 176.228865 
L 384.96 175.848899 
L 391.723636 175.482687 
L 398.487273 175.129493 
" style="fill:none;stroke:#9467bd;stroke-linecap:square;stroke-width:1.5;"/>
   </g>
   <g id="line2d_30">
    <path clip-path="url(#ped70ca55c5)" d="M 73.832727 286.531726 
L 80.596364 269.435477 
L 87.36 255.644823 
L 94.123636 243.644682 
L 100.887273 232.918234 
L 107.650909 224.087139 
L 114.414545 215.495383 
L 121.178182 208.224652 
L 127.941818 201.713661 
L 134.705455 195.849241 
L 141.469091 190.539637 
L 148.232727 185.709671 
L 154.996364 181.29716 
L 161.76 177.250225 
L 168.523636 173.525241 
L 175.287273 170.085259 
L 182.050909 166.898776 
L 188.814545 163.938765 
L 195.578182 161.181912 
L 202.341818 158.607996 
L 209.105455 156.199391 
L 215.869091 153.940669 
L 222.632727 151.81826 
L 229.396364 149.820186 
L 236.16 147.935834 
L 242.923636 146.155761 
L 249.687273 144.471546 
L 256.450909 142.875649 
L 263.214545 141.361299 
L 269.978182 139.922403 
L 276.741818 138.553457 
L 283.505455 137.20013 
L 290.269091 136.005963 
L 297.032727 134.818786 
L 303.796364 133.684209 
L 310.56 132.598812 
L 317.323636 131.559465 
L 324.087273 130.563297 
L 330.850909 129.607674 
L 337.614545 128.690169 
L 344.378182 127.808546 
L 351.141818 126.960741 
L 357.905455 126.144844 
L 364.669091 125.359087 
L 371.432727 124.60183 
L 378.196364 123.871551 
L 384.96 123.166833 
L 391.723636 122.486357 
L 398.487273 121.828894 
" style="fill:none;stroke:#8c564b;stroke-linecap:square;stroke-width:1.5;"/>
   </g>
   <g id="line2d_31">
    <path clip-path="url(#ped70ca55c5)" d="M 73.832727 285.276008 
L 80.596364 266.366319 
L 87.36 250.23054 
L 94.123636 235.627843 
L 100.887273 222.377298 
L 107.650909 210.995679 
L 114.414545 199.708286 
L 121.178182 189.885669 
L 127.941818 180.899349 
L 134.705455 172.646883 
L 141.469091 165.041904 
L 148.232727 158.011086 
L 154.996364 151.491773 
L 161.76 145.430103 
L 168.523636 139.779524 
L 175.287273 134.499586 
L 182.050909 129.554982 
L 188.814545 124.914747 
L 195.578182 120.551618 
L 202.341818 116.441491 
L 209.105455 112.562982 
L 215.869091 108.897047 
L 222.632727 105.426677 
L 229.396364 102.13663 
L 236.16 99.013206 
L 242.923636 96.04406 
L 249.687273 93.218038 
L 256.450909 90.525034 
L 263.214545 87.955873 
L 269.978182 85.502203 
L 276.741818 83.156409 
L 283.505455 80.841125 
L 290.269091 78.76119 
L 297.032727 76.699541 
L 303.796364 74.721207 
L 310.56 72.821236 
L 317.323636 70.995064 
L 324.087273 69.238473 
L 330.850909 67.547561 
L 337.614545 65.91871 
L 344.378182 64.348567 
L 351.141818 62.834013 
L 357.905455 61.372148 
L 364.669091 59.960269 
L 371.432727 58.595855 
L 378.196364 57.276553 
L 384.96 56.000162 
L 391.723636 54.764621 
L 398.487273 53.568 
" style="fill:none;stroke:#e377c2;stroke-linecap:square;stroke-width:1.5;"/>
   </g>
   <g id="patch_3">
    <path d="M 57.6 307.584 
L 57.6 41.472 
" style="fill:none;stroke:#000000;stroke-linecap:square;stroke-linejoin:miter;stroke-width:0.8;"/>
   </g>
   <g id="patch_4">
    <path d="M 414.72 307.584 
L 414.72 41.472 
" style="fill:none;stroke:#000000;stroke-linecap:square;stroke-linejoin:miter;stroke-width:0.8;"/>
   </g>
   <g id="patch_5">
    <path d="M 57.6 307.584 
L 414.72 307.584 
" style="fill:none;stroke:#000000;stroke-linecap:square;stroke-linejoin:miter;stroke-width:0.8;"/>
   </g>
   <g id="patch_6">
    <path d="M 57.6 41.472 
L 414.72 41.472 
" style="fill:none;stroke:#000000;stroke-linecap:square;stroke-linejoin:miter;stroke-width:0.8;"/>
   </g>
   <g id="text_15">
    <!-- bfloat16 vs. HBFP$n$ Area Comparison -->
    <g transform="translate(125.64 35.472)scale(0.12 -0.12)">
     <defs>
      <path d="M 3116 1747 
Q 3116 2381 2855 2742 
Q 2594 3103 2138 3103 
Q 1681 3103 1420 2742 
Q 1159 2381 1159 1747 
Q 1159 1113 1420 752 
Q 1681 391 2138 391 
Q 2594 391 2855 752 
Q 3116 1113 3116 1747 
z
M 1159 2969 
Q 1341 3281 1617 3432 
Q 1894 3584 2278 3584 
Q 2916 3584 3314 3078 
Q 3713 2572 3713 1747 
Q 3713 922 3314 415 
Q 2916 -91 2278 -91 
Q 1894 -91 1617 61 
Q 1341 213 1159 525 
L 1159 0 
L 581 0 
L 581 4863 
L 1159 4863 
L 1159 2969 
z
" id="DejaVuSans-62" transform="scale(0.015625)"/>
      <path d="M 2375 4863 
L 2375 4384 
L 1825 4384 
Q 1516 4384 1395 4259 
Q 1275 4134 1275 3809 
L 1275 3500 
L 2222 3500 
L 2222 3053 
L 1275 3053 
L 1275 0 
L 697 0 
L 697 3053 
L 147 3053 
L 147 3500 
L 697 3500 
L 697 3744 
Q 697 4328 969 4595 
Q 1241 4863 1831 4863 
L 2375 4863 
z
" id="DejaVuSans-66" transform="scale(0.015625)"/>
      <path d="M 191 3500 
L 800 3500 
L 1894 563 
L 2988 3500 
L 3597 3500 
L 2284 0 
L 1503 0 
L 191 3500 
z
" id="DejaVuSans-76" transform="scale(0.015625)"/>
      <path d="M 2834 3397 
L 2834 2853 
Q 2591 2978 2328 3040 
Q 2066 3103 1784 3103 
Q 1356 3103 1142 2972 
Q 928 2841 928 2578 
Q 928 2378 1081 2264 
Q 1234 2150 1697 2047 
L 1894 2003 
Q 2506 1872 2764 1633 
Q 3022 1394 3022 966 
Q 3022 478 2636 193 
Q 2250 -91 1575 -91 
Q 1294 -91 989 -36 
Q 684 19 347 128 
L 347 722 
Q 666 556 975 473 
Q 1284 391 1588 391 
Q 1994 391 2212 530 
Q 2431 669 2431 922 
Q 2431 1156 2273 1281 
Q 2116 1406 1581 1522 
L 1381 1569 
Q 847 1681 609 1914 
Q 372 2147 372 2553 
Q 372 3047 722 3315 
Q 1072 3584 1716 3584 
Q 2034 3584 2315 3537 
Q 2597 3491 2834 3397 
z
" id="DejaVuSans-73" transform="scale(0.015625)"/>
      <path d="M 684 794 
L 1344 794 
L 1344 0 
L 684 0 
L 684 794 
z
" id="DejaVuSans-2e" transform="scale(0.015625)"/>
      <path d="M 628 4666 
L 1259 4666 
L 1259 2753 
L 3553 2753 
L 3553 4666 
L 4184 4666 
L 4184 0 
L 3553 0 
L 3553 2222 
L 1259 2222 
L 1259 0 
L 628 0 
L 628 4666 
z
" id="DejaVuSans-48" transform="scale(0.015625)"/>
      <path d="M 628 4666 
L 3309 4666 
L 3309 4134 
L 1259 4134 
L 1259 2759 
L 3109 2759 
L 3109 2228 
L 1259 2228 
L 1259 0 
L 628 0 
L 628 4666 
z
" id="DejaVuSans-46" transform="scale(0.015625)"/>
      <path d="M 1259 4147 
L 1259 2394 
L 2053 2394 
Q 2494 2394 2734 2622 
Q 2975 2850 2975 3272 
Q 2975 3691 2734 3919 
Q 2494 4147 2053 4147 
L 1259 4147 
z
M 628 4666 
L 2053 4666 
Q 2838 4666 3239 4311 
Q 3641 3956 3641 3272 
Q 3641 2581 3239 2228 
Q 2838 1875 2053 1875 
L 1259 1875 
L 1259 0 
L 628 0 
L 628 4666 
z
" id="DejaVuSans-50" transform="scale(0.015625)"/>
      <path d="M 3566 2113 
L 3156 0 
L 2578 0 
L 2988 2091 
Q 3016 2238 3031 2350 
Q 3047 2463 3047 2528 
Q 3047 2791 2881 2937 
Q 2716 3084 2419 3084 
Q 1956 3084 1622 2776 
Q 1288 2469 1184 1941 
L 800 0 
L 225 0 
L 903 3500 
L 1478 3500 
L 1363 2950 
Q 1603 3253 1940 3418 
Q 2278 3584 2650 3584 
Q 3113 3584 3367 3334 
Q 3622 3084 3622 2631 
Q 3622 2519 3608 2391 
Q 3594 2263 3566 2113 
z
" id="DejaVuSans-Oblique-6e" transform="scale(0.015625)"/>
      <path d="M 4122 4306 
L 4122 3641 
Q 3803 3938 3442 4084 
Q 3081 4231 2675 4231 
Q 1875 4231 1450 3742 
Q 1025 3253 1025 2328 
Q 1025 1406 1450 917 
Q 1875 428 2675 428 
Q 3081 428 3442 575 
Q 3803 722 4122 1019 
L 4122 359 
Q 3791 134 3420 21 
Q 3050 -91 2638 -91 
Q 1578 -91 968 557 
Q 359 1206 359 2328 
Q 359 3453 968 4101 
Q 1578 4750 2638 4750 
Q 3056 4750 3426 4639 
Q 3797 4528 4122 4306 
z
" id="DejaVuSans-43" transform="scale(0.015625)"/>
      <path d="M 3328 2828 
Q 3544 3216 3844 3400 
Q 4144 3584 4550 3584 
Q 5097 3584 5394 3201 
Q 5691 2819 5691 2113 
L 5691 0 
L 5113 0 
L 5113 2094 
Q 5113 2597 4934 2840 
Q 4756 3084 4391 3084 
Q 3944 3084 3684 2787 
Q 3425 2491 3425 1978 
L 3425 0 
L 2847 0 
L 2847 2094 
Q 2847 2600 2669 2842 
Q 2491 3084 2119 3084 
Q 1678 3084 1418 2786 
Q 1159 2488 1159 1978 
L 1159 0 
L 581 0 
L 581 3500 
L 1159 3500 
L 1159 2956 
Q 1356 3278 1631 3431 
Q 1906 3584 2284 3584 
Q 2666 3584 2933 3390 
Q 3200 3197 3328 2828 
z
" id="DejaVuSans-6d" transform="scale(0.015625)"/>
      <path d="M 1159 525 
L 1159 -1331 
L 581 -1331 
L 581 3500 
L 1159 3500 
L 1159 2969 
Q 1341 3281 1617 3432 
Q 1894 3584 2278 3584 
Q 2916 3584 3314 3078 
Q 3713 2572 3713 1747 
Q 3713 922 3314 415 
Q 2916 -91 2278 -91 
Q 1894 -91 1617 61 
Q 1341 213 1159 525 
z
M 3116 1747 
Q 3116 2381 2855 2742 
Q 2594 3103 2138 3103 
Q 1681 3103 1420 2742 
Q 1159 2381 1159 1747 
Q 1159 1113 1420 752 
Q 1681 391 2138 391 
Q 2594 391 2855 752 
Q 3116 1113 3116 1747 
z
" id="DejaVuSans-70" transform="scale(0.015625)"/>
      <path d="M 3513 2113 
L 3513 0 
L 2938 0 
L 2938 2094 
Q 2938 2591 2744 2837 
Q 2550 3084 2163 3084 
Q 1697 3084 1428 2787 
Q 1159 2491 1159 1978 
L 1159 0 
L 581 0 
L 581 3500 
L 1159 3500 
L 1159 2956 
Q 1366 3272 1645 3428 
Q 1925 3584 2291 3584 
Q 2894 3584 3203 3211 
Q 3513 2838 3513 2113 
z
" id="DejaVuSans-6e" transform="scale(0.015625)"/>
     </defs>
     <use transform="translate(0 0.015625)" xlink:href="#DejaVuSans-62"/>
     <use transform="translate(63.476562 0.015625)" xlink:href="#DejaVuSans-66"/>
     <use transform="translate(98.681641 0.015625)" xlink:href="#DejaVuSans-6c"/>
     <use transform="translate(126.464844 0.015625)" xlink:href="#DejaVuSans-6f"/>
     <use transform="translate(187.646484 0.015625)" xlink:href="#DejaVuSans-61"/>
     <use transform="translate(248.925781 0.015625)" xlink:href="#DejaVuSans-74"/>
     <use transform="translate(288.134766 0.015625)" xlink:href="#DejaVuSans-31"/>
     <use transform="translate(351.757812 0.015625)" xlink:href="#DejaVuSans-36"/>
     <use transform="translate(415.380859 0.015625)" xlink:href="#DejaVuSans-20"/>
     <use transform="translate(447.167969 0.015625)" xlink:href="#DejaVuSans-76"/>
     <use transform="translate(506.347656 0.015625)" xlink:href="#DejaVuSans-73"/>
     <use transform="translate(558.447266 0.015625)" xlink:href="#DejaVuSans-2e"/>
     <use transform="translate(590.234375 0.015625)" xlink:href="#DejaVuSans-20"/>
     <use transform="translate(622.021484 0.015625)" xlink:href="#DejaVuSans-48"/>
     <use transform="translate(697.216797 0.015625)" xlink:href="#DejaVuSans-42"/>
     <use transform="translate(765.820312 0.015625)" xlink:href="#DejaVuSans-46"/>
     <use transform="translate(823.339844 0.015625)" xlink:href="#DejaVuSans-50"/>
     <use transform="translate(883.642578 0.015625)" xlink:href="#DejaVuSans-Oblique-6e"/>
     <use transform="translate(947.021484 0.015625)" xlink:href="#DejaVuSans-20"/>
     <use transform="translate(978.808594 0.015625)" xlink:href="#DejaVuSans-41"/>
     <use transform="translate(1047.216797 0.015625)" xlink:href="#DejaVuSans-72"/>
     <use transform="translate(1088.330078 0.015625)" xlink:href="#DejaVuSans-65"/>
     <use transform="translate(1149.853516 0.015625)" xlink:href="#DejaVuSans-61"/>
     <use transform="translate(1211.132812 0.015625)" xlink:href="#DejaVuSans-20"/>
     <use transform="translate(1242.919922 0.015625)" xlink:href="#DejaVuSans-43"/>
     <use transform="translate(1312.744141 0.015625)" xlink:href="#DejaVuSans-6f"/>
     <use transform="translate(1373.925781 0.015625)" xlink:href="#DejaVuSans-6d"/>
     <use transform="translate(1471.337891 0.015625)" xlink:href="#DejaVuSans-70"/>
     <use transform="translate(1534.814453 0.015625)" xlink:href="#DejaVuSans-61"/>
     <use transform="translate(1596.09375 0.015625)" xlink:href="#DejaVuSans-72"/>
     <use transform="translate(1637.207031 0.015625)" xlink:href="#DejaVuSans-69"/>
     <use transform="translate(1664.990234 0.015625)" xlink:href="#DejaVuSans-73"/>
     <use transform="translate(1717.089844 0.015625)" xlink:href="#DejaVuSans-6f"/>
     <use transform="translate(1778.271484 0.015625)" xlink:href="#DejaVuSans-6e"/>
    </g>
   </g>
   <g id="legend_1">
    <g id="patch_7">
     <path d="M 64.6 152.218875 
L 174.032813 152.218875 
Q 176.032813 152.218875 176.032813 150.218875 
L 176.032813 48.472 
Q 176.032813 46.472 174.032813 46.472 
L 64.6 46.472 
Q 62.6 46.472 62.6 48.472 
L 62.6 150.218875 
Q 62.6 152.218875 64.6 152.218875 
z
" style="fill:#ffffff;opacity:0.8;stroke:#cccccc;stroke-linejoin:miter;"/>
    </g>
    <g id="line2d_32">
     <path d="M 66.6 54.570438 
L 86.6 54.570438 
" style="fill:none;stroke:#1f77b4;stroke-linecap:square;stroke-width:1.5;"/>
    </g>
    <g id="line2d_33"/>
    <g id="text_16">
     <!-- bfloat16/HBFP8 -->
     <g transform="translate(94.6 58.070438)scale(0.1 -0.1)">
      <defs>
       <path d="M 1625 4666 
L 2156 4666 
L 531 -594 
L 0 -594 
L 1625 4666 
z
" id="DejaVuSans-2f" transform="scale(0.015625)"/>
       <path d="M 2034 2216 
Q 1584 2216 1326 1975 
Q 1069 1734 1069 1313 
Q 1069 891 1326 650 
Q 1584 409 2034 409 
Q 2484 409 2743 651 
Q 3003 894 3003 1313 
Q 3003 1734 2745 1975 
Q 2488 2216 2034 2216 
z
M 1403 2484 
Q 997 2584 770 2862 
Q 544 3141 544 3541 
Q 544 4100 942 4425 
Q 1341 4750 2034 4750 
Q 2731 4750 3128 4425 
Q 3525 4100 3525 3541 
Q 3525 3141 3298 2862 
Q 3072 2584 2669 2484 
Q 3125 2378 3379 2068 
Q 3634 1759 3634 1313 
Q 3634 634 3220 271 
Q 2806 -91 2034 -91 
Q 1263 -91 848 271 
Q 434 634 434 1313 
Q 434 1759 690 2068 
Q 947 2378 1403 2484 
z
M 1172 3481 
Q 1172 3119 1398 2916 
Q 1625 2713 2034 2713 
Q 2441 2713 2670 2916 
Q 2900 3119 2900 3481 
Q 2900 3844 2670 4047 
Q 2441 4250 2034 4250 
Q 1625 4250 1398 4047 
Q 1172 3844 1172 3481 
z
" id="DejaVuSans-38" transform="scale(0.015625)"/>
      </defs>
      <use xlink:href="#DejaVuSans-62"/>
      <use x="63.476562" xlink:href="#DejaVuSans-66"/>
      <use x="98.681641" xlink:href="#DejaVuSans-6c"/>
      <use x="126.464844" xlink:href="#DejaVuSans-6f"/>
      <use x="187.646484" xlink:href="#DejaVuSans-61"/>
      <use x="248.925781" xlink:href="#DejaVuSans-74"/>
      <use x="288.134766" xlink:href="#DejaVuSans-31"/>
      <use x="351.757812" xlink:href="#DejaVuSans-36"/>
      <use x="415.380859" xlink:href="#DejaVuSans-2f"/>
      <use x="449.072266" xlink:href="#DejaVuSans-48"/>
      <use x="524.267578" xlink:href="#DejaVuSans-42"/>
      <use x="592.871094" xlink:href="#DejaVuSans-46"/>
      <use x="650.390625" xlink:href="#DejaVuSans-50"/>
      <use x="710.693359" xlink:href="#DejaVuSans-38"/>
     </g>
    </g>
    <g id="line2d_34">
     <path d="M 66.6 69.248563 
L 86.6 69.248563 
" style="fill:none;stroke:#ff7f0e;stroke-linecap:square;stroke-width:1.5;"/>
    </g>
    <g id="line2d_35"/>
    <g id="text_17">
     <!-- bfloat16/HBFP7 -->
     <g transform="translate(94.6 72.748563)scale(0.1 -0.1)">
      <defs>
       <path d="M 525 4666 
L 3525 4666 
L 3525 4397 
L 1831 0 
L 1172 0 
L 2766 4134 
L 525 4134 
L 525 4666 
z
" id="DejaVuSans-37" transform="scale(0.015625)"/>
      </defs>
      <use xlink:href="#DejaVuSans-62"/>
      <use x="63.476562" xlink:href="#DejaVuSans-66"/>
      <use x="98.681641" xlink:href="#DejaVuSans-6c"/>
      <use x="126.464844" xlink:href="#DejaVuSans-6f"/>
      <use x="187.646484" xlink:href="#DejaVuSans-61"/>
      <use x="248.925781" xlink:href="#DejaVuSans-74"/>
      <use x="288.134766" xlink:href="#DejaVuSans-31"/>
      <use x="351.757812" xlink:href="#DejaVuSans-36"/>
      <use x="415.380859" xlink:href="#DejaVuSans-2f"/>
      <use x="449.072266" xlink:href="#DejaVuSans-48"/>
      <use x="524.267578" xlink:href="#DejaVuSans-42"/>
      <use x="592.871094" xlink:href="#DejaVuSans-46"/>
      <use x="650.390625" xlink:href="#DejaVuSans-50"/>
      <use x="710.693359" xlink:href="#DejaVuSans-37"/>
     </g>
    </g>
    <g id="line2d_36">
     <path d="M 66.6 83.926688 
L 86.6 83.926688 
" style="fill:none;stroke:#2ca02c;stroke-linecap:square;stroke-width:1.5;"/>
    </g>
    <g id="line2d_37"/>
    <g id="text_18">
     <!-- bfloat16/HBFP6 -->
     <g transform="translate(94.6 87.426688)scale(0.1 -0.1)">
      <use xlink:href="#DejaVuSans-62"/>
      <use x="63.476562" xlink:href="#DejaVuSans-66"/>
      <use x="98.681641" xlink:href="#DejaVuSans-6c"/>
      <use x="126.464844" xlink:href="#DejaVuSans-6f"/>
      <use x="187.646484" xlink:href="#DejaVuSans-61"/>
      <use x="248.925781" xlink:href="#DejaVuSans-74"/>
      <use x="288.134766" xlink:href="#DejaVuSans-31"/>
      <use x="351.757812" xlink:href="#DejaVuSans-36"/>
      <use x="415.380859" xlink:href="#DejaVuSans-2f"/>
      <use x="449.072266" xlink:href="#DejaVuSans-48"/>
      <use x="524.267578" xlink:href="#DejaVuSans-42"/>
      <use x="592.871094" xlink:href="#DejaVuSans-46"/>
      <use x="650.390625" xlink:href="#DejaVuSans-50"/>
      <use x="710.693359" xlink:href="#DejaVuSans-36"/>
     </g>
    </g>
    <g id="line2d_38">
     <path d="M 66.6 98.604813 
L 86.6 98.604813 
" style="fill:none;stroke:#d62728;stroke-linecap:square;stroke-width:1.5;"/>
    </g>
    <g id="line2d_39"/>
    <g id="text_19">
     <!-- bfloat16/HBFP5 -->
     <g transform="translate(94.6 102.104813)scale(0.1 -0.1)">
      <use xlink:href="#DejaVuSans-62"/>
      <use x="63.476562" xlink:href="#DejaVuSans-66"/>
      <use x="98.681641" xlink:href="#DejaVuSans-6c"/>
      <use x="126.464844" xlink:href="#DejaVuSans-6f"/>
      <use x="187.646484" xlink:href="#DejaVuSans-61"/>
      <use x="248.925781" xlink:href="#DejaVuSans-74"/>
      <use x="288.134766" xlink:href="#DejaVuSans-31"/>
      <use x="351.757812" xlink:href="#DejaVuSans-36"/>
      <use x="415.380859" xlink:href="#DejaVuSans-2f"/>
      <use x="449.072266" xlink:href="#DejaVuSans-48"/>
      <use x="524.267578" xlink:href="#DejaVuSans-42"/>
      <use x="592.871094" xlink:href="#DejaVuSans-46"/>
      <use x="650.390625" xlink:href="#DejaVuSans-50"/>
      <use x="710.693359" xlink:href="#DejaVuSans-35"/>
     </g>
    </g>
    <g id="line2d_40">
     <path d="M 66.6 113.282938 
L 86.6 113.282938 
" style="fill:none;stroke:#9467bd;stroke-linecap:square;stroke-width:1.5;"/>
    </g>
    <g id="line2d_41"/>
    <g id="text_20">
     <!-- bfloat16/HBFP4 -->
     <g transform="translate(94.6 116.782938)scale(0.1 -0.1)">
      <use xlink:href="#DejaVuSans-62"/>
      <use x="63.476562" xlink:href="#DejaVuSans-66"/>
      <use x="98.681641" xlink:href="#DejaVuSans-6c"/>
      <use x="126.464844" xlink:href="#DejaVuSans-6f"/>
      <use x="187.646484" xlink:href="#DejaVuSans-61"/>
      <use x="248.925781" xlink:href="#DejaVuSans-74"/>
      <use x="288.134766" xlink:href="#DejaVuSans-31"/>
      <use x="351.757812" xlink:href="#DejaVuSans-36"/>
      <use x="415.380859" xlink:href="#DejaVuSans-2f"/>
      <use x="449.072266" xlink:href="#DejaVuSans-48"/>
      <use x="524.267578" xlink:href="#DejaVuSans-42"/>
      <use x="592.871094" xlink:href="#DejaVuSans-46"/>
      <use x="650.390625" xlink:href="#DejaVuSans-50"/>
      <use x="710.693359" xlink:href="#DejaVuSans-34"/>
     </g>
    </g>
    <g id="line2d_42">
     <path d="M 66.6 127.961063 
L 86.6 127.961063 
" style="fill:none;stroke:#8c564b;stroke-linecap:square;stroke-width:1.5;"/>
    </g>
    <g id="line2d_43"/>
    <g id="text_21">
     <!-- bfloat16/HBFP3 -->
     <g transform="translate(94.6 131.461063)scale(0.1 -0.1)">
      <use xlink:href="#DejaVuSans-62"/>
      <use x="63.476562" xlink:href="#DejaVuSans-66"/>
      <use x="98.681641" xlink:href="#DejaVuSans-6c"/>
      <use x="126.464844" xlink:href="#DejaVuSans-6f"/>
      <use x="187.646484" xlink:href="#DejaVuSans-61"/>
      <use x="248.925781" xlink:href="#DejaVuSans-74"/>
      <use x="288.134766" xlink:href="#DejaVuSans-31"/>
      <use x="351.757812" xlink:href="#DejaVuSans-36"/>
      <use x="415.380859" xlink:href="#DejaVuSans-2f"/>
      <use x="449.072266" xlink:href="#DejaVuSans-48"/>
      <use x="524.267578" xlink:href="#DejaVuSans-42"/>
      <use x="592.871094" xlink:href="#DejaVuSans-46"/>
      <use x="650.390625" xlink:href="#DejaVuSans-50"/>
      <use x="710.693359" xlink:href="#DejaVuSans-33"/>
     </g>
    </g>
    <g id="line2d_44">
     <path d="M 66.6 142.639188 
L 86.6 142.639188 
" style="fill:none;stroke:#e377c2;stroke-linecap:square;stroke-width:1.5;"/>
    </g>
    <g id="line2d_45"/>
    <g id="text_22">
     <!-- bfloat16/HBFP2 -->
     <g transform="translate(94.6 146.139188)scale(0.1 -0.1)">
      <use xlink:href="#DejaVuSans-62"/>
      <use x="63.476562" xlink:href="#DejaVuSans-66"/>
      <use x="98.681641" xlink:href="#DejaVuSans-6c"/>
      <use x="126.464844" xlink:href="#DejaVuSans-6f"/>
      <use x="187.646484" xlink:href="#DejaVuSans-61"/>
      <use x="248.925781" xlink:href="#DejaVuSans-74"/>
      <use x="288.134766" xlink:href="#DejaVuSans-31"/>
      <use x="351.757812" xlink:href="#DejaVuSans-36"/>
      <use x="415.380859" xlink:href="#DejaVuSans-2f"/>
      <use x="449.072266" xlink:href="#DejaVuSans-48"/>
      <use x="524.267578" xlink:href="#DejaVuSans-42"/>
      <use x="592.871094" xlink:href="#DejaVuSans-46"/>
      <use x="650.390625" xlink:href="#DejaVuSans-50"/>
      <use x="710.693359" xlink:href="#DejaVuSans-32"/>
     </g>
    </g>
   </g>
  </g>
 </g>
 <defs>
  <clipPath id="ped70ca55c5">
   <rect height="266.112" width="357.12" x="57.6" y="41.472"/>
  </clipPath>
 </defs>
</svg>
